<svg width="56" height="56" fill="none" xmlns="http://www.w3.org/2000/svg"><path fill-rule="evenodd" clip-rule="evenodd" d="M14 5.6a2.8 2.8 0 012.8 2.8v2.8h2.8a2.8 2.8 0 110 5.6h-2.8v2.8a2.8 2.8 0 11-5.6 0v-2.8H8.4a2.8 2.8 0 110-5.6h2.8V8.4A2.8 2.8 0 0114 5.6zm0 28a2.8 2.8 0 012.8 2.8v2.8h2.8a2.8 2.8 0 110 5.6h-2.8v2.8a2.8 2.8 0 11-5.6 0v-2.8H8.4a2.8 2.8 0 110-5.6h2.8v-2.8a2.8 2.8 0 012.8-2.8zM33.6 5.6a2.8 2.8 0 012.707 2.083l3.301 12.474L49 25.575a2.8 2.8 0 010 4.85l-9.39 5.418-3.302 12.473a2.8 2.8 0 01-5.414 0l-3.302-12.473-9.39-5.418a2.8 2.8 0 010-4.85l9.39-5.418 3.302-12.474A2.8 2.8 0 0133.6 5.6z" fill="#FF7500"/></svg>